<?xml version="1.0" encoding="utf-8"?>
<svg width="291px" height="65px" viewBox="0 0 291 65" version="1.1" xmlns:xlink="http://www.w3.org/1999/xlink" xmlns="http://www.w3.org/2000/svg">
  <desc>Created with Lunacy</desc>
  <defs>
    <path d="M0 0L58.1047 0L58.1047 58.3338L0 58.3338L0 0Z" transform="translate(0.00035574572 0.595)" id="path_1" />
    <path d="M0 63.6907L290.318 63.6907L290.318 0L0 0L0 63.6907Z" transform="translate(0 0.59503174)" id="path_2" />
    <clipPath id="mask_1">
      <use xlink:href="#path_1" />
    </clipPath>
    <clipPath id="mask_2">
      <use xlink:href="#path_2" />
    </clipPath>
  </defs>
  <g id="Group-28">
    <g id="Group-3">
      <path d="M0 0L58.1047 0L58.1047 58.3338L0 58.3338L0 0Z" transform="translate(0.00035574572 0.595)" id="Clip-2" fill="none" fill-rule="evenodd" stroke="none" />
      <g clip-path="url(#mask_1)">
        <path d="M0 29.1671C0 13.0586 13.0039 0 29.0502 0C45.0965 0 58.1047 13.0586 58.1047 29.1671C58.1047 45.2743 45.0965 58.3343 29.0502 58.3343C13.0039 58.3343 0 45.2743 0 29.1671ZM21.2487 29.2857C21.2487 33.5464 24.6895 36.9993 28.9335 36.9993C33.1776 36.9993 36.6183 33.5464 36.6183 29.2857C36.6183 25.0243 33.1776 21.5729 28.9335 21.5729C24.6895 21.5729 21.2487 25.0243 21.2487 29.2857Z" transform="translate(0.00035574572 0.5945)" id="Fill-1" fill="#003741" fill-rule="evenodd" stroke="none" />
      </g>
    </g>
    <path d="M0 0L14.9947 0L14.9947 5.515L6.30524 5.515L6.30524 8.17L14.2113 8.17L14.2113 12.9836L6.30524 12.9836L6.30524 15.6093L15.0815 15.6093L15.0815 21.0057L0 21.0057L0 0Z" transform="translate(64.85742 37.182312)" id="Fill-4" fill="#003741" fill-rule="evenodd" stroke="none" />
    <path d="M14.9371 14.0029C13.3682 15.0829 10.868 16.1907 7.93242 16.1907C3.54394 16.1907 0 13.595 0 8.22571C0 3.52929 2.93561 0 8.36998 0C12.7286 0 15.2565 2.1 15.2565 6.67929L10.2007 6.67929C10.1423 5.25 9.67628 4.52214 8.5443 4.52214C7.26504 4.52214 6.39275 5.6 6.39275 8.02214C6.39275 10.3564 7.35184 11.5807 9.06654 11.5807C10.4041 11.5807 11.7987 11.1143 13.455 10.2979L14.9371 14.0029Z" transform="translate(80.98633 42.34723)" id="Fill-6" fill="#003741" fill-rule="evenodd" stroke="none" />
    <path d="M17.0303 8.08214C17.0303 2.42214 13.571 0 8.60193 0C3.98222 0 0 2.45143 0 8.08214C0 13.6243 3.54607 16.1921 8.25401 16.1921C13.1064 16.1921 17.0303 13.6243 17.0303 8.08214ZM10.6361 8.08214C10.6361 10.5607 9.79439 11.5543 8.54501 11.5543C7.17824 11.5543 6.39489 10.5607 6.39489 8.08214C6.39489 5.63143 7.17824 4.58 8.54501 4.58C9.82356 4.58 10.6361 5.60214 10.6361 8.08214Z" transform="translate(96.88281 42.34601)" id="Fill-8" fill="#003741" fill-rule="evenodd" stroke="none" />
    <path d="M4.9406 0.35L5.492 1.95357C6.42263 0.99 8.10744 0 10.1722 0C13.4266 0 15.1121 1.80786 15.1121 5.19143L15.1121 15.8407L9.06796 15.8407L9.06796 6.70929C9.06796 5.19143 8.71933 4.78357 7.7887 4.78357C7.06084 4.78357 6.39346 5.25 6.04483 5.63071L6.04483 15.8407L0 15.8407L0 0.35L4.9406 0.35Z" transform="translate(115.25 42.347107)" id="Fill-10" fill="#003741" fill-rule="evenodd" stroke="none" />
    <path d="M17.0303 8.08214C17.0303 2.42214 13.571 0 8.60264 0C3.98151 0 0 2.45143 0 8.08214C0 13.6243 3.54607 16.1921 8.25401 16.1921C13.1064 16.1921 17.0303 13.6243 17.0303 8.08214ZM10.6354 8.08214C10.6354 10.5607 9.79439 11.5543 8.54501 11.5543C7.17753 11.5543 6.39417 10.5607 6.39417 8.08214C6.39417 5.63143 7.17753 4.58 8.54501 4.58C9.82285 4.58 10.6354 5.60214 10.6354 8.08214Z" transform="translate(131.55273 42.34601)" id="Fill-12" fill="#003741" fill-rule="evenodd" stroke="none" />
    <path d="M4.93989 0.35L5.49129 1.95357C6.39346 0.99 7.78799 0 9.85131 0C11.6542 0 12.989 0.727857 13.7745 2.01143C14.7926 1.04929 16.3323 0 18.54 0C21.243 0 23.0737 1.80786 23.0737 5.04571L23.0737 15.8407L17.0288 15.8407L17.0288 6.44643C17.0288 5.25 16.8253 4.84214 16.0128 4.84214C15.4017 4.84214 14.8502 5.25 14.56 5.48357L14.56 15.8407L8.51371 15.8407L8.51371 6.44643C8.51371 5.25 8.3401 4.81214 7.4977 4.81214C6.88653 4.81214 6.33512 5.22071 6.04483 5.51357L6.04483 15.8407L0 15.8407L0 0.35L4.93989 0.35Z" transform="translate(149.9209 42.347107)" id="Fill-14" fill="#003741" fill-rule="evenodd" stroke="none" />
    <path d="M0 63.6907L290.318 63.6907L290.318 0L0 0L0 63.6907Z" transform="translate(0 0.59503174)" id="Clip-17" fill="none" fill-rule="evenodd" stroke="none" />
    <g clip-path="url(#mask_2)">
      <path d="M7.8755 3.26786L5.17183 0L0 4.66857L2.23693 7.32286L7.8755 3.26786ZM7.11989 23.8071L1.07506 23.8071L1.07506 8.31643L7.11989 8.31643L7.11989 23.8071Z" transform="translate(173.75195 34.380737)" id="Fill-16" fill="#003741" fill-rule="evenodd" stroke="none" />
      <path d="M9.91108 15.8429L14.7919 15.8429L14.7919 6.09714C14.7919 1.78 12.3223 0 7.43935 0C5.20314 0 2.67521 0.700714 0.698685 1.60429L1.85984 5.36857C3.42939 4.75643 5.05799 4.37571 6.83103 4.37571C8.02207 4.37571 8.7485 4.84429 8.7485 6.03857L8.7485 7.00214C8.19709 6.94429 7.67201 6.915 6.91783 6.915C2.23906 6.915 0 8.665 0 11.6114C0 14.7914 2.03415 16.1921 4.9406 16.1921C6.71506 16.1921 8.48667 15.4636 9.38671 14.2093L9.91108 15.8429ZM7.61438 9.745C8.10958 9.745 8.48667 9.80357 8.7485 9.89071L8.7485 11.0579C8.7485 11.7864 8.02207 12.4586 7.09215 12.4586C6.21915 12.4586 5.66845 12.0786 5.66845 11.145C5.66845 10.0943 6.48098 9.745 7.61438 9.745Z" transform="translate(182.14941 42.345947)" id="Fill-18" fill="#003741" fill-rule="evenodd" stroke="none" />
      <path d="M18.8012 10.5914C18.8012 4.46429 15.4301 0 8.39702 0L0 0L0 21.0079L7.38101 21.0079C15.2273 21.0079 18.8012 17.6221 18.8012 10.5914ZM6.30595 15.61L6.30595 5.39786L8.22342 5.39786C10.8972 5.39786 12.2049 7.17714 12.2049 10.5914C12.2049 13.9757 10.8972 15.61 8.22342 15.61L6.30595 15.61Z" transform="translate(203.39551 37.181305)" id="Fill-19" fill="#003741" fill-rule="evenodd" stroke="none" />
      <path d="M0 15.4907L6.04554 15.4907L6.04554 0L0 0L0 15.4907Z" transform="translate(223.7666 42.697174)" id="Fill-20" fill="#003741" fill-rule="evenodd" stroke="none" />
      <path d="M8.97973 21.94C13.9189 21.94 16.4767 20.1314 16.4767 14.3543L16.4767 0.35L11.566 0.35L11.1291 1.80786C10.1423 0.817857 8.6311 0 6.71221 0C2.46959 0 0 3.03357 0 8.28643C0 13.6243 2.73142 15.7843 6.39204 15.7843C7.99005 15.7843 9.61794 15.2007 10.6638 13.8593L10.6638 14.8786C10.6638 16.9221 9.96799 17.5636 7.87408 17.5636C6.27607 17.5636 4.59125 17.1557 3.19531 16.8057L2.38278 20.8593C3.71825 21.3864 6.18855 21.94 8.97973 21.94ZM8.48596 4.63857C9.32765 4.63857 9.99717 5.07714 10.4326 5.57286L10.4326 10.3857C9.96799 10.825 9.32765 11.145 8.51513 11.145C7.03309 11.145 6.39204 10.2107 6.39204 8.02357C6.39204 5.95143 7.00392 4.63857 8.48596 4.63857Z" transform="translate(231.20703 42.34601)" id="Fill-21" fill="#003741" fill-rule="evenodd" stroke="none" />
      <path d="M0 15.4907L6.04483 15.4907L6.04483 0L0 0L0 15.4907Z" transform="translate(249.57324 42.697174)" id="Fill-22" fill="#003741" fill-rule="evenodd" stroke="none" />
      <path d="M8.13804 8.98643L8.13804 15.0536C8.13804 15.7257 8.36927 16.0179 9.06796 16.0179C9.50339 16.0179 9.90965 15.93 10.2875 15.8421L10.8118 19.8671C9.38742 20.335 8.10887 20.54 6.62612 20.54C3.40093 20.54 2.09321 18.7893 2.09321 16.2214L2.09321 8.98643L0 8.98643L0 5.71857L2.23835 4.72571L2.70224 0L8.13804 0L8.13804 4.69714L10.55 4.69714L10.55 8.98643L8.13804 8.98643Z" transform="translate(256.60547 37.999176)" id="Fill-23" fill="#003741" fill-rule="evenodd" stroke="none" />
      <path d="M9.91108 15.8429L14.7926 15.8429L14.7926 6.09714C14.7926 1.78 12.3223 0 7.44007 0C5.20314 0 2.67521 0.700714 0.698685 1.60429L1.85984 5.36857C3.42939 4.75643 5.05799 4.37571 6.83103 4.37571C8.02207 4.37571 8.7485 4.84429 8.7485 6.03857L8.7485 7.00214C8.19709 6.94429 7.67201 6.915 6.91783 6.915C2.23906 6.915 0 8.665 0 11.6114C0 14.7914 2.03415 16.1921 4.9406 16.1921C6.71506 16.1921 8.48667 15.4636 9.38742 14.2093L9.91108 15.8429ZM7.61438 9.745C8.10958 9.745 8.48667 9.80357 8.7485 9.89071L8.7485 11.0579C8.7485 11.7864 8.02207 12.4586 7.09215 12.4586C6.21915 12.4586 5.66845 12.0786 5.66845 11.145C5.66845 10.0943 6.48098 9.745 7.61438 9.745Z" transform="translate(267.73633 42.345947)" id="Fill-24" fill="#003741" fill-rule="evenodd" stroke="none" />
      <path d="M0 21.0064L6.04483 21.0064L6.04483 0L0 0L0 21.0064Z" transform="translate(284.27246 37.181458)" id="Fill-25" fill="#003741" fill-rule="evenodd" stroke="none" />
      <path d="M0 4.64929L6.14373 4.64929L6.14373 0L0 0L0 4.64929Z" transform="translate(223.74023 36.643585)" id="Fill-26" fill="#003741" fill-rule="evenodd" stroke="none" />
      <path d="M0 4.64929L6.14373 4.64929L6.14373 0L0 0L0 4.64929Z" transform="translate(249.49414 36.643585)" id="Fill-27" fill="#003741" fill-rule="evenodd" stroke="none" />
    </g>
  </g>
</svg>